<?xml version="1.0" encoding="iso-8859-1"?>
<!-- Generator: Adobe Illustrator 19.1.0, SVG Export Plug-In . SVG Version: 6.00 Build 0)  -->
<svg xmlns="http://www.w3.org/2000/svg" xmlns:xlink="http://www.w3.org/1999/xlink" version="1.1" id="Capa_1" x="0px" y="0px" viewBox="0 0 67.216 67.216" style="enable-background:new 0 0 67.216 67.216;" xml:space="preserve" width="512px" height="512px">
<g>
	<g>
		<path d="M0.927,66.269c0.391,0.391,0.902,0.586,1.414,0.586s1.023-0.195,1.414-0.586l15.03-15.221    c0.567,0.175,1.159,0.084,1.766,0.084h9.744c2.042,1,11.351,8.504,19.323,15.493c0.372,0.326,0.843,0.591,1.318,0.591    c0.28,0,0.312-0.011,0.575-0.131c0.716-0.323,0.925-0.988,0.925-1.773V17.087L66.29,3.483c0.781-0.781,0.906-2.047,0.125-2.828    s-2.234-0.781-3.016,0L52.437,11.431V2.07c0-0.792-0.218-1.51-0.942-1.83c-0.725-0.319-1.446-0.372-2.03,0.162    c-7.952,7.253-17.117,15.73-19.184,15.73h-9.729c-3.709,0-7.114,3.081-7.114,6.528v22.062c0,1.556,0.824,3.027,1.757,4.202    L0.802,63.441C0.021,64.222,0.146,65.487,0.927,66.269z M48.437,60.923c-15-13.411-17.219-13.791-17.958-13.791h-7.968    l25.926-26.045V60.923z M17.437,44.722V22.66c0-1.344,1.829-2.528,3.114-2.528h9.928c0.744,0,2.958,0.38,17.958-13.556v8.854    L17.828,46.04C17.589,45.63,17.437,45.177,17.437,44.722z" fill="#FFFFFF"/>
	</g>
</g>
<g>
</g>
<g>
</g>
<g>
</g>
<g>
</g>
<g>
</g>
<g>
</g>
<g>
</g>
<g>
</g>
<g>
</g>
<g>
</g>
<g>
</g>
<g>
</g>
<g>
</g>
<g>
</g>
<g>
</g>
</svg>
